<svg width="24" height="24" viewBox="0 0 24 24" fill="none" xmlns="http://www.w3.org/2000/svg">
<g clip-path="url(#clip0_82_892)">
<path d="M23.3882 10.9462L13.0539 0.612359C12.4592 0.0172344 11.4939 0.0172344 10.8983 0.612359L8.7525 2.75848L11.4746 5.48061C12.1074 5.26705 12.8327 5.4103 13.3369 5.91448C13.8437 6.42186 13.9858 7.1533 13.767 7.78817L16.3905 10.4119C17.0252 10.193 17.7578 10.3344 18.2644 10.8422C18.9731 11.5504 18.9731 12.6984 18.2644 13.407C18.096 13.5755 17.896 13.7092 17.6759 13.8004C17.4558 13.8916 17.2198 13.9385 16.9816 13.9385C16.7433 13.9385 16.5074 13.8916 16.2873 13.8004C16.0672 13.7092 15.8672 13.5755 15.6988 13.407C15.4458 13.1537 15.2734 12.8313 15.2031 12.4803C15.1329 12.1293 15.1681 11.7654 15.3041 11.4343L12.8576 8.9878L12.8573 15.4267C13.0348 15.5141 13.1968 15.6299 13.3371 15.7695C14.0454 16.4777 14.0454 17.6254 13.3371 18.335C12.6285 19.0432 11.4801 19.0432 10.7723 18.335C10.0639 17.6255 10.0639 16.4779 10.7723 15.7695C10.9421 15.5997 11.1439 15.4652 11.3661 15.3739V8.8753C11.1437 8.78431 10.9418 8.64973 10.7723 8.47948C10.2356 7.94323 10.1064 7.15573 10.3817 6.49648L7.698 3.8128L0.612003 10.8984C0.326124 11.1844 0.165527 11.5722 0.165527 11.9765C0.165527 12.3809 0.326124 12.7687 0.612003 13.0547L10.9464 23.3885C11.5416 23.9837 12.5064 23.9837 13.1025 23.3885L23.3884 13.1027C23.6742 12.8166 23.8347 12.4288 23.8347 12.0244C23.8347 11.62 23.6741 11.2322 23.3882 10.9462Z" fill="#F34F29"/>
</g>
<defs>
<clipPath id="clip0_82_892">
<rect width="24" height="24" fill="white"/>
</clipPath>
</defs>
</svg>
